<?xml version="1.0" encoding="UTF-8"?>
<svg version="1.1" viewBox="0 0 809 814" width="809" height="814" xmlns="http://www.w3.org/2000/svg">
<path transform="translate(397,46)" d="m0 0h15l13 4 5 3 2 3v7l-10 21-5 15-3 20v12l4 1 20-6 10-1h11l18 2 6 3 2 3 2 7 1 1 22 2 19 2h27l12-3 17-9 9-7 6 1-1 9-4 10-9 11-8 8-12 8v3l25 14 22 16 10 8 20 18 8 8 9 11 14 18 10 15 11 19 12 25 11 31 6 26 4 25 1 11v46l-3 28-7 31-10 30-13 29-13 23-12 18-9 11-11 13-7 8-15 15-8 7-14 12-19 13-13 8-10 6-23 11-18 8-33 11-33 7-25 3-27 2h-20l-39-3-20-3-36-9-31-11-12-5-16-8-16-9-14-9-18-13-12-10-8-7-6-5-7-8-9-9-9-11-11-14-11-16-15-26-10-21-6-15-7-23-4-16-4-23-2-20v-46l3-27 6-28 7-24 11-26 13-25 9-14 10-14 9-11 18-20 11-11 11-9 10-8 17-12 17-10 10-6h2l-2-4-9-5-10-8-8-10-5-10-2-7v-6l4-1 19 13 12 5 9 2h25l37-4 4-1 5-8 10-5 19-2 18 1 15 4 5 1 2-1v-52l3-19 3-6 6-5z" fill="#EB503E"/>
<path transform="translate(560,175)" d="m0 0 6 1 25 14 22 16 10 8 20 18 8 8 9 11 14 18 10 15 11 19 12 25 11 31 6 26 4 25 1 11v46l-3 28-7 31-10 30-13 29-13 23-12 18-9 11-11 13-7 8-15 15-8 7-14 12-19 13-13 8-10 6-23 11-18 8-33 11-33 7-25 3-27 2h-20l-39-3-20-3-36-9-31-11-12-5-5-3-1-2-14-7-11-7-1-5v-6l-4-6-7-8-10-10-7-8-5-4-6-7-5-5-10-11-9-11-5-6v-2l-3-1-6-9-5-7-2-4v-7l2-6h3l-2-8 1-5 2-1h11l-2 1v2h6l3-2 6 1 13 4 19 4 16 4 24 3h18l6-1 7 1 4-1h34l30-5 16-5 9-3 4-3 15-3 11-5 25-10 18-8 16-7 11-8 5-3 3-1 1-3 8-2v-2l7-4 3-5 6-5 3-7 3-1 17 8 9 2 9 1h10l15-2 13-5 14-8 9-8 1-2h2l2-4 6-10 5-11 2-7-6 5-3-3h-8l-12 7-1 5-4-5-3-6-6-2h-7l-6 3-4 6v7l3 6 5 4 11 1-3 3-25 9-2 2 1 4 9 3 11-2v-2l11-4h2l-1 4-12 5-14 3h-20l-16-4-14-7-1-3-4-1-12-11-9-14-5-12-3-12v-21l4-16 8-16 7-9 7-7 14-9 12-5 13-3h20l19 4-2-6-4-5v-34l-4-17-3-6-3-13-12-20-7-8-5-5h-8l-7-20-9-16-8-10-6-7-11-9v-1l38-1 23-2 19-5z" fill="#BD2521"/>
<path transform="translate(397,46)" d="m0 0h15l13 4 5 3 2 3v7l-10 21-5 15-3 20v12l4 1 20-6 10-1h11l18 2 6 3 2 3 2 7 1 1 22 2 19 2h27l12-3 17-9 9-7 6 1-1 9-4 10-9 11-8 8-12 8-1 3-7 1-19 5-23 2-37 1 14 12 11 14 9 16 7 21 1 8v11l-6-2-10-6-16-8-18-8-32-13-19-9-15-10-8-6-4 1-13 10-18 10-26 11-32 13-23 12-5 3h-2v2h-4v-11l4-17 3-11 3-1 1-5 7-12 3-3 3-5 9-9 9-7 1-2h-39l-20-2-17-4-14-7-8-5-9-7-8-10-5-10-2-7v-6l4-1 19 13 12 5 9 2h25l37-4 4-1 5-8 10-5 19-2 18 1 15 4 5 1 2-1v-52l3-19 3-6 6-5z" fill="#8CAB41"/>
<path transform="translate(242,357)" d="m0 0h23l15 4 16 8 12 11 8 9 8 15 3 10 2 9v15l-3 15-2 7-4 4-8-4-8 1-7 3-2 4-1-4-3-3v-2l-6-3h-10l-6 4-2 2v11l4 6 3 2 11 1-4 3-10 5-15 4-5 3-1 4 12 3-2 2-4 1h-12l-14-3-13-5-13-9-10-10-4-7-8-16-3-12-1-7v-11l1-12 5-15 8-13 9-10 11-9 14-7z" fill="#030201"/>
<path transform="translate(528,357)" d="m0 0h20l16 4 14 7 9 7 11 11 8 13 5 14 2 12v13l-3 16-5 5-3-3h-8l-12 7-1 5-4-5-3-6-6-2h-7l-6 3-4 6v7l3 6 5 4 11 1-3 3-25 9-2 2 1 4 9 3 11-2v-2l11-4h2l-1 4-12 5-14 3h-20l-16-4-14-7-1-3-4-1-12-11-9-14-5-12-3-12v-21l4-16 8-16 7-9 7-7 14-9 12-5z" fill="#020100"/>
<path transform="translate(246,251)" d="m0 0 21 3 3 2v11l6-1 4 10 4 4 4 2 16 2 5 6 1 4v14l-2 9-4 9-5 13-9 16-1 9-7-1-12-4-5-1h-23l-16 4-14 7-11 9-9 10-4 4-9-6v-2h-2v-2l-5-2-8-6-6-9v-2h-2l-2-6-2-18 4-21 5-13 9-16 8-10 8-7h2l1-3 12-7 9-5 17-4z" fill="#FDEAE7"/>
<path transform="translate(339,263)" d="m0 0h11l10 4 11 7 10 6 7 6 8 11 5 9 3 9 1 10v33l-3 9-6 16-6 18-6 10-8 9-8 7-8 5-14 7-3 1-14 1-1-18-4-16-8-16-7-9-9-9-13-8 2-1v-9l10-18 7-18 2-5 1-6v-14l-3-7-4-2-14-2-7-4-5-10v-3l-2-1 6-1 4 9 3 2h14l25-7 7-4z" fill="#F58A7A"/>
<path transform="translate(227,173)" d="m0 0 3 1v2l-10 6 1 9 2 5 3 1-1 5-8 6-17 9-3 3-5 3-10 8-14 10-9 8-8 10-4 3h-2l-2 4-7 7-5 7h-2l-2 6-6 7-8 13-7 12-5 10-6 16-5 15-6 24-2 13-3 24-1 19 1 25 3 27 6 28 5 16 3 8v8l6 15 6 13 6 12 10 16 8 13 10 15 9 12 5 7 6 13v2h2l3 4v2l4 2 10 9h-3l-11-9-9-8-7-8-9-9-9-11-11-14-11-16-15-26-10-21-6-15-7-23-4-16-4-23-2-20v-46l3-27 6-28 7-24 11-26 13-25 9-14 10-14 9-11 18-20 11-11 11-9 10-8 17-12 17-10 10-6h2z" fill="#F58B7B"/>
<path transform="translate(397,46)" d="m0 0h15l13 4 5 3v2l-5-2-8-3-7-1h-12l-7 1 1 2 16 5-3 3h-2v2h-2l-2 5-4 13-3 19-3 43-3 6h-5l-4-2-2-7h-12l-14-4 5 6-2 4-8 8-2 1h-39v2l13 1 17 3 7 3 7 11 2 2-1 4-15 10-9 7-8 8-3 6 4-3h2l-2 4-8 7-6 6h-3l2-6 9-12 4-6-7-1-1-2 7-9 9-7 6-4-5 1-11 7v-2h-39l-20-2-17-4-14-7-8-5-9-7-8-10-5-10-2-7v-6l4-1 19 13 12 5 9 2h25l37-4 4-1 5-8 10-5 19-2 18 1 15 4 5 1 2-1v-52l3-19 3-6 6-5z" fill="#8CAB41"/>
<path transform="translate(567,177)" d="m0 0 11 6 16 9 15 11 13 10 12 11 8 7 9 9 9 11 14 18 10 15 11 19 12 25 11 31 6 26 4 25 1 11v46l-3 28-7 31-10 30-13 29-13 23-12 18-9 11-11 13-7 8-15 15-8 7-4 3 2-4 10-10 8-7 11-12 5-10 8-17 10-23 8-15 5-12 8-20 6-17 7-25 2-13 4-28 1-14v-33l-3-25-2-15-3-15-2-9-6-20-3-7-4-12-7-15-8-17-8-11-9-13-8-9v-2l-3-1v-2l-3-1-1-4h-2v-2l-4-2-9-7-12-9-9-7-9-5-3-2v-2l-4-2-4-5-2-10-4-5-13-8z" fill="#D05B56"/>
<path transform="translate(276,231)" d="m0 0 1 2-5 17-1 6-15-3-10-1-21 2-17 5-12 7-7 4-5 5-8 7-9 14-8 16-3 9-3 18 1 13 2 7v4h2l5 8 1 3 4 2 9 6v2h2l3 3 6 4 2 1-5 8-5 15-3 13-2-4-4-1v-2l-4-2-12-9-10-10-7-14-4-15-2-13v-9l4-23 3-11 7-18 12-20 6-8 7-6 3-3 10-8 11-7 13-5 13-4 16-2 10-1h25z" fill="#F58A7A"/>
<path transform="translate(420,56)" d="m0 0h8l-1 5-8 13-3 7-5 22-1 10v25l1 3 2 1v2l14-3 8-4h4l-2 7 6 2 7 7 22 1 2 2-3 2-23 5-6 3-5 6h-2l2 5 17 11 11 8 6 6-1 3-24-15-17-7-3-1h-11l-12 1h-20l-6-1h-11l-17 6-12 6-10 7-5 1 2-4 7-6 27-18-1-6-6-4-22-6 1-3 16 1h11l5-7-3-5-2-4 6 1 4 3 7 1 2 2 1 7h10l2-5 2-23 2-26 4-20 6-16 4-4z" fill="#5A7B2B"/>
<path transform="translate(246,251)" d="m0 0 21 3 3 2v11l6-1 4 10 4 4 4 2 16 2 5 6 1 4v14l-2 9-4 9-5 13-9 16-1 9-7-1-12-4-5-1-17-1 4-2 1-7 8-10 10-13 6-11 5-13v-8l-4-7-7-12v-2l-4-2v-2l-4-2-8-3h-20l-21 5-12 6-10 8h-2l-1 3-5 4-6 8-8 16-3 9-2 11v9l4 10 5 6 12 6 16 3 6 4-13 13-5 7-3 1-5-4-3-2v-2h-2v-2l-5-2-8-6-6-9v-2h-2l-2-6-2-18 4-21 5-13 9-16 8-10 8-7h2l1-3 12-7 9-5 17-4z" fill="#F4C7C2"/>
<path transform="translate(394,204)" d="m0 0 5 1 10 8 15 9 17 8 42 17 17 8 14 8 5 4h-2l1 4-4 9-3 2h-7l-9-3-33-15-7-4-11-6-15-9-15-10-8-7-9-3-7 3-20 13-10 6-12 6-5 3-26 8-20 7h-9l-4-4-1-5-2-1 25-13 47-19 16-8 14-8z" fill="#BD2521"/>
<path transform="translate(398,48)" d="m0 0h12l14 3 8 5v7l-10 21-5 15-3 20v12l4 1 20-6 10-1h11l18 2 6 3 2 3 1 9-23 2-4 2 5 5 34 2 9 2 1 2-10 1-22 1-9 2-5 4-13 5-6 7 1 3 12 8-2 1-14-9-5-4v-4l5-4 5-5 15-4 13-3-1-1-22-1-4-5-7-4-2-1 1-5 1-2-9 3-6 3-11 1v-2l-3-1-1-3v-25l2-15 4-17 7-14 5-8 1-3-12 2-11 4-5 12-4 16-2 10-3 42-2 11-2 2h-10l-1-1-1-7-1-1-7-1-6-4-4-1 6 8-4 7-2 2h-11l-16-1-1 2 8 1 16 5 5 4 1 6-8 6-16 10-10 8-3 4 7-2-3 3-13 9-1-2 6-8 9-9 21-14-1-4-6-9-4-4-13-3-21-3v-2l7-1h32l8-7 3-3-2-4-3-4 2-1 13 4h12l2 3v5l9 1 2-5 3-43 3-19 4-13 3-5h2v-2l4-2-16-6v-2z" fill="#769639"/>
<path transform="translate(235,273)" d="m0 0h13l9 4 2 6v9l-6 12-7 8-8 7-8 6-14 8-16 4-3 1h-7l-8-4-1-8 4-15 6-11 8-9 13-9 12-6z" fill="#FDF3F1"/>
<path transform="translate(587,189)" d="m0 0 5 2 10 7 11 8 10 8 20 18 8 8 9 11 14 18 10 15 11 19 12 25 11 31 6 26 4 25 1 11v46l-3 28-7 31-10 30-13 29-13 23-12 18-3 2 1-4 7-12 4-10 7-20 7-15 5-14 5-16 3-9 7-33 3-19 2-26v-19l-4-42-4-21-5-19-11-32-7-17-9-17-5-10-4-5-11-14-18-21-8-7-10-9-11-9-17-12-8-5z" fill="#DD6E65"/>
<path transform="translate(395,188)" d="m0 0 5 2 13 11 7 5 11 6 30 14 22 10 4 3 6 3 12 8 10 9 4 4v2h2v2l-6-2-10-6-16-8-18-8-32-13-19-9-15-10-8-6-4 1-13 10-18 10-26 11-32 13-23 12-7 4h-2l2-5 9-9 15-10 16-9 45-20 18-11 12-9z" fill="#3F5F1F"/>
<path transform="translate(416,57)" d="m0 0h8l1 2-9 15-5 17-4 25v18l3 22 2 2 1-8 7-2h4l6 7 2 1v2l3 1v5l-8 6-3 5-5 2h-7l-16 2-13-1-12-2-2-4-2-9 4-7 4-1 1 8 10-1 4-4 1-2 4-47 2-18 4-15 4-10 3-5h2v-2z" fill="#4A6922"/>
<path transform="translate(95,546)" d="m0 0h2l8 18 5 7v2h2l6 11 1 3h4l7 10v2h2l7 12 6 8 9 11 12 14 9 10v2l3 1 7 8 7 6 4 5 10 10 9 10 2 4v11l5 2 11 7 10 5-3 1-21-11-17-11-18-13-9-10-8-6-3-4v-2h-2l-6-12-4-7-8-11-10-14-12-20-7-11-6-11-4-8-6-13-4-11z" fill="#D05B57"/>
<path transform="translate(225,375)" d="m0 0h11l9 4 6 7 2 5v11l-4 10-8 9-12 6h-13l-7-3-5-5-4-9v-10l4-10 9-10 8-4z" fill="#FAF9F7"/>
<path transform="translate(510,375)" d="m0 0h11l7 3 6 5 3 6 1 11-4 11-9 10-12 6h-12l-10-5-5-7-1-3v-14l5-10 8-8z" fill="#FAF9F7"/>
<path transform="translate(192,125)" d="m0 0 5 1 15 11 11 5 12 3h25l40-4 6 2v2l-6 2-1 4-21 5-1 2h13l5 3-1 6 7 1-1 2-7 1h-39l-15-3-14-6-11-8-10-9-8-11-3-5v-2l-2-1z" fill="#A2B85D"/>
<path transform="translate(235,262)" d="m0 0h20l8 3 9 9 7 12 4 7v8l-6 16-7 11-11 13-5 7-2 7h5v1l-20 3-13 4-5-1 1-5 20-10 10-10 9-11 11-18 4-10v-10l-4-8-4-6v-2l-8-4-6-1h-17l-17 4-14 7-10 8-4 4h-2l-1 3h-2l-1 4h-2l-2 5-6 13-4 15v8l3 8 7 7 14 5 13 2 6 2 2 1 1 4-7 4-5-2-10-2-10-3-10-5-6-7-4-10v-9l3-15 5-11 7-13 8-9 11-9 13-8 19-5z" fill="#F1D5D1"/>
<path transform="translate(326,177)" d="m0 0 4 1-5 4-10 7-7 9 3 2 4 1-2 5-8 10-4 7-1 2 5-3 10-10 9-6 5 2 7 5 1 9-10 5h-2v2l-19 9-14 9-11 8-7 7-2 4 2 1h-4v-11l4-17 3-11 3-1 1-5 7-12 3-3 3-5 9-9 16-12z" fill="#A0B75A"/>
<path transform="translate(366,181)" d="m0 0h11l6 1h25l7-1h11l13 5 14 7 15 10 2 1-2-4-4-5 4 2 16 16 3 5v2l-5-2-11-10-18-12-11-6-9-4h-7l-8 3-12 2-5-2h-4l-5 2-9 8-19 12-14 7-22 10-3-1 11-5-1-9-9-6-7 2 5-6 4-2 5-5 11-7 19-7z" fill="#8CAB40"/>
<path transform="translate(275,455)" d="m0 0h10l6 4 1 4 4 1 8-4 8-1 6 4h2l3-3-2 6-9 14-11 11-13 8-12 5-14 3h-6l4-2-10-4 1-5 5-3 15-4 12-6-9-1-6-5-2-4v-11l5-5z" fill="#381915"/>
<path transform="translate(561,454)" d="m0 0h7l7 3 5 8 4-4 10-6h8l4 3 3-3-1 5-7 14-8 10-10 9-9 5v-3l-9 4h-4v2l-11 3-9-3-2-2 1-4 5-3 22-8 1-1-9-1-7-6-2-5v-7l6-8z" fill="#381714"/>
<path transform="translate(274,266)" d="m0 0h2l4 10 4 4 4 2 16 2 5 6 1 4v14l-2 9-4 9-5 13-9 16-1 9-7-1-12-4-5-1-17-1v-1l12-1 2-1v-2l3-3h2v-2l5-4 9-13 6-12 5-14 1-11-4-4-9-7-6-9-1-5-2-1z" fill="#F6B2A9"/>
<path transform="translate(597,128)" d="m0 0h2v8l-4 10-9 11-8 8-12 8-1 3-7 1-19 5-23 2-40 1-10-7-6-4 3-2 7-1 66-1 16-3 10-4 18-12 7-7 3-7 5-7h2z" fill="#4B6A22"/>
<path transform="translate(191,127)" d="m0 0h2l6 10 7 9 10 9 13 8 14 5 11 2 65 1 11 2v3l-14 8-3 2v-2h-39l-20-2-17-4-14-7-8-5-9-7-8-10-5-10-2-7z" fill="#4B6A22"/>
<path transform="translate(246,251)" d="m0 0 21 3 3 2v11l-4-5-6-3-8-1h-14l-18 3-14 5-11 7-13 11-1 2h-2l-2 4-6 10-5 10-4 11-2 11v15l4 12 2 4 3 1v2l4 2 10 6 2 1 11 1 4 3-8 9-4 4-9-6v-2h-2v-2l-5-2-8-6-6-9v-2h-2l-2-6-2-18 4-21 5-13 9-16 8-10 8-7h2l1-3 12-7 9-5 17-4z" fill="#F6B2AA"/>
<path transform="translate(233,176)" d="m0 0 21 5 20 2 39 1-2 4-11 9-9 9-18-1-7-1-15-2-11-3-5-4-6-8v-6z" fill="#BC2521"/>
<path transform="translate(213,183)" d="m0 0 2 1-5 5-5 7-9 5-13 9h-2v2l-13 10-10 7-5 5-5 6-13 13-9 11-8 10-9 14-9 16-8 16-11 28-4 13-5 21-5 30-1 10v41l3 29 5 25 7 25 8 21 4 9 8 17 10 17 10 16 3 4-1 2-12-17-15-26-10-21-6-15-7-23-4-16-4-23-2-20v-46l3-27 6-28 7-24 11-26 13-25 9-14 10-14 9-11 18-20 11-11 11-9 10-8 17-12z" fill="#F6B3AB"/>
<path transform="translate(398,48)" d="m0 0h12l14 3 4 4-21 6-3 3-6 16-4 20-3 42-2 11-2 2h-10l-1-1-1-7-1-1-7-1-6-4-4-1 6 8-4 7-2 2h-11l-16-1-1 2 8 1 16 5 5 4 1 6-8 6-16 10-10 8-3 4 7-2-3 3-13 9-1-2 6-8 9-9 21-14-1-4-6-9-4-4-13-3-21-3v-2l7-1h32l8-7 3-3-2-4-3-4 2-1 13 4h12l2 3v5l9 1 2-5 3-43 3-19 4-13 3-5h2v-2l4-2-16-6v-2z" fill="#77973A"/>
<path transform="translate(408,77)" d="m0 0h2l1 4-5 30v25l2 26v6l4-2 1-14 7 1 7 5 1 6-9 9-12 3-12 1-11-1-9-4-2-5 2-2 8 5 8 1 3-7 1-22 4-40 4-18 2-4h2z" fill="#3E5D1F"/>
<path transform="translate(686,289)" d="m0 0 4 5 12 23 7 17 9 25 6 26 4 25 1 11v46l-3 28-7 31-10 30-13 29-13 23-2 1 1-4 9-17 7-15 5-12 4-15 6-18 3-15 3-19 2-9 3-29v-27l-2-18-1-14-5-29-7-24-8-21-9-20-6-10z" fill="#E8887D"/>
<path transform="translate(397,46)" d="m0 0h15l13 4 5 3v2l-5-2-8-3-7-1h-12l-7 1 1 2 16 5-3 3-8 3-3 5-4 15-2 23-1 17-1 4-4-1-3-12-1-1-1 19-2-2v-52l3-19 3-6 6-5z" fill="#A3B95E"/>
<path transform="translate(95,546)" d="m0 0h2l8 18 5 7v2h2l6 11 1 3h2l7 14 7 11 4 7 8 11 8 10 9 12 7 10 9 14 5 12 2 4-4-2-8-9-8-6-3-4v-2h-2l-6-12-4-7-8-11-10-14-12-20-7-11-6-11-4-8-6-13-4-11z" fill="#DE6E65"/>
<path transform="translate(550,471)" d="m0 0 2 2 3 5 4 3 11 1-3 3-25 9-2 2 1 4 9 3 11-2v-2l11-4h2l-1 4-12 5-14 3h-20l-16-4-4-2 2-1 3 1-1-3 3-5 5-4 13-6 13-4 6-2z" fill="#1D0D0B"/>
<path transform="translate(439,217)" d="m0 0 5 1 17 8 22 10 4 3 6 3 12 8 10 9 4 4v2h2v2l-6-2-10-6-16-8-18-8-32-13-2-1 1-5 3-3v-2z" fill="#527328"/>
<path transform="translate(266,473)" d="m0 0 4 5 4 3 11 1-4 3-10 5-15 4-5 3-1 4 12 3-2 2-4 1h-12l-14-3-11-4 4-1 3 1-1-4 2-4 18-8 15-4 6-3z" fill="#1C0D0B"/>
<path transform="translate(420,56)" d="m0 0h8l-1 5-8 13-3 7-5 22-1 10v25l2 10 9-2 7-1 3 5 7 6 5 2-1 4-9 6-3 3-2 8h-15l-11 1h-17l-4-1h-16l-1-4 1-5-3-4v-5l6-5 1-5 5-1 1 5-4 2-3 6 2 11 4 2 9 1 13 1 20-2h5l4-4 4-5 4-3h2l-1-5-2-1v-2l-3-1v-2l-4-2-1-3-7 2h-4v8l-2 2-2-4-3-22v-18l5-29 5-15 8-13z" fill="#517228"/>
<path transform="translate(335,224)" d="m0 0 2 2 2 4 3 1-1 4-37 15-23 12-7 4h-2l2-5 9-9 15-10 16-9z" fill="#547528"/>
<path transform="translate(96,560)" d="m0 0h2v2h2l6 13 8 16 10 16 8 13 10 15 9 12 5 7 6 13v2h2l3 4v2l4 2 10 9h-3l-11-9-9-8-6-7-2-5-5-5-9-12-8-16-10-17-8-13-6-12-5-13z" fill="#E5847B"/>
<path transform="translate(408,61)" d="m0 0 1 3-8 21-2 11-4 37-2 25-3 7-4 3-7 1-4-3v4 2l9 3 11 1 18-2 7-3 5-5h2v-6l-5-5-9-3v-2l7-2h4l6 7 2 1v2l3 1v5l-8 6-3 5-5 2h-7l-16 2-13-1-12-2-2-4-2-9 4-7 4-1 1 8 10-1 4-4 1-2 4-47 2-18 4-15 4-10z" fill="#4A6922"/>
<path transform="translate(448,125)" d="m0 0h11l18 2 6 3v1l-10 3-14 9-5 1-8-6 2-4-9 1-10 3-16 1 1-4h2v-2l8-3 14-4z" fill="#8DAB41"/>
<path transform="translate(597,128)" d="m0 0h2v8l-4 10-9 11-8 8-12 8-1 3-7 1-10 3h-6l1-3h2l2-4 2-3-1-2 14-5 18-12 7-7 3-7 5-7h2z" fill="#517127"/>
<path transform="translate(366,181)" d="m0 0h11l6 1h25l7-1h11l13 5 14 7 15 10 2 1-2-4-4-5 4 2 16 16 3 5v2l-5-2-11-10-18-12-11-6-9-4h-7l-8 3-12 2-5-2h-4l-17-1-14-2h-7l-15 6-12 7h-3l10-7 12-6z" fill="#77973A"/>
<path transform="translate(561,454)" d="m0 0h7l7 3 3 6v9l-4 6-5 3h-11l-6-5-2-5v-7l6-8z" fill="#F8F6F2"/>
<path transform="translate(325,453)" d="m0 0h2l-1 7-8 16-10 13-9 8-14 8-12 5-12 2h-15l-16-3-14-7-14-10-9-11 1-2 11 11 14 9 14 5 11 2h18l14-3 12-5 14-9 10-10 8-13 4-10z" fill="#F3A197"/>
<path transform="translate(275,455)" d="m0 0h10l6 4 2 4v9l-4 6-6 3h-10l-5-4-2-4v-11l5-5z" fill="#F8F6F2"/>
<path transform="translate(594,455)" d="m0 0h8l4 3 3-3-1 5-7 14-8 10-7 6-3-1 3-3 1-8-1-2h-7l-2 1 1-13 2 1 4-4z" fill="#1D0D0B"/>
<path transform="translate(71,376)" d="m0 0h1l-1 11-4 25-1 10v41l3 29 5 25 7 25 8 21 4 9 8 17 10 17 10 16 3 4-1 2-12-17-15-26-10-21-6-15-7-23-4-16-4-23-2-20v-46l3-27h2l2-14z" fill="#F6BBB4"/>
<path transform="translate(381,199)" d="m0 0 2 1-4 6-7 1 5 5 1 3 2 1-18 10-19 8-1-3-4-1-2-6 30-15z" fill="#4B6A22"/>
<path transform="translate(609,454)" d="m0 0h2l-1 7-8 17-6 8h-2l-2 4-9 8-17 9-14 4-10 1h-10l-14-2v-2l-6-1-11-6-8-6 2-1 16 8 16 4h20l17-4 16-8 11-9 7-8 8-14z" fill="#F09C92"/>
<path transform="translate(307,459)" d="m0 0 7 1 4 3h2l3-3-2 6-9 14-7 7h-3l-2-9-8-1 1-14 3 1 8-4z" fill="#1C0F0B"/>
<path transform="translate(425,55)" d="m0 0h6l1 1v7l-10 21-5 15-3 20v12l2 1v3l-4 1v6l-2-1-1-3v-25l2-15 4-17 7-14 5-8 1-3z" fill="#678634"/>
<path transform="translate(310,153)" d="m0 0h25l2 2-7 1-1 2 8 1 16 5 5 4 1 6-8 6-16 10-10 8-3 4 7-2-3 3-13 9-1-2 6-8 9-9 21-14-1-4-6-9-4-4-13-3-21-3v-2z" fill="#77973A"/>
<path transform="translate(412,201)" d="m0 0 21 12 6 3v2l3 1-2 5h-2l-1 4-5-1-17-9-9-6 3-5z" fill="#4A6922"/>
<path transform="translate(339,256)" d="m0 0 4 1-6 3h-2v3h-2l-1 3-9 4-22 6h-14l-5-4-2-8-2-1 5-1 3 6 2 2h9l20-7 15-5z" fill="#D05A56"/>
<path transform="translate(200,136)" d="m0 0 7 6 11 10 16 8 14 4 12 2 31 2v2l-11 1h-26l-15-3-14-6-11-8-10-9-4-5z" fill="#B2C479"/>
<path transform="translate(387,54)" d="m0 0h7l9 3 1 2-9 4-4 9-3 14-2 16-1 2h-2l-1-2-1-15 2-21 3-11z" fill="#B7C780"/>
<path transform="translate(418,202)" d="m0 0 9 3 23 11 15 7 10 4 6 5 8 3 11 8 2 3-8-2-4-3-22-11-24-11-19-9-3-3v-2l-4-2z" fill="#AEC173"/>
<path transform="translate(407,60)" d="m0 0 3 1-2 1-6 14-4 15-4 41-2 24-4 6-2 1h-10l-1-9h12l2-5 2-23 2-26 4-20 6-16z" fill="#597A2A"/>
<path transform="translate(291,172)" d="m0 0h35l5 2-3 3-13 8-2 1v-2h-14l-2-4h-2z" fill="#3E5D1F"/>
<path transform="translate(480,235)" d="m0 0 12 6 10 7 9 7 8 8v2h2v2l-6-2-10-6-30-15v-3l4-1z" fill="#517227"/>
<path transform="translate(127,257)" d="m0 0v3l-7 9-3 7-7 10-10 18-8 16-11 28-4 13-4 15h-2l-1 10-2 8h-1l1-11 7-28 6-18 10-23 12-23 9-14 10-14z" fill="#F6B8B1"/>
<path transform="translate(326,177)" d="m0 0 4 1-5 4-10 7-9 8-14 16-14 27-2 3-3-1 4-14 3-1 1-5 7-12 3-3 3-5 9-9 16-12z" fill="#B5C27B"/>
<path transform="translate(594,126)" d="m0 0 6 1-1 4v-3h-2v2l-5 5-6 9-5 5-5-1-2-2h-8l-10 2h-24l-13-2v-1h37l12-3 17-9z" fill="#A4BA61"/>
<path transform="translate(315,231)" d="m0 0 3 1-17 9-19 13-8 8-2 4 2 1h-4v-11l2-7 7-9 7 1 6 3 7-5 5-5z" fill="#8DAB43"/>
<path transform="translate(463,172)" d="m0 0h32l-5 10-3 2-11 1-10-7-6-4z" fill="#3F5F1F"/>
<path transform="translate(191,127)" d="m0 0h2l6 10 7 9 8 7-4 4 2 4 4 2 12 7 6 5-2 1-10-6-6-3-10-8-8-10-5-10-2-7z" fill="#668634"/>
<path transform="translate(211,154)" d="m0 0 5 1 13 8 14 5 4 2-2 2h-3v5l-5 1-3-1-5-5-8-5-9-6-3-5z" fill="#517228"/>
<path transform="translate(471,157)" d="m0 0m-6 1h6l-5 4-6 4-11 4-6 7 1 3 12 8-2 1-14-9-5-4v-4l5-4 5-5 15-4z" fill="#77973A"/>
<path transform="translate(597,128)" d="m0 0h2v8l-4 10-9 11-8 8-8 5v-3l10-9v-7l7-7 3-7 5-7h2z" fill="#678634"/>
<path transform="translate(193,479)" d="m0 0 7 6 9 8 12 7 17 5 21 2v1l-18 1 27 1v1l-7 1h-15l-16-3-14-7-14-10-9-11z" fill="#F18677"/>
<path transform="translate(398,48)" d="m0 0h12l14 3 4 4-21 6-4-1 4-2-16-6v-2z" fill="#8BAA40"/>
<path transform="translate(587,189)" d="m0 0 5 2 10 7 11 8 10 8 20 18 8 8 9 11 14 18 10 15 2 5h-2l-10-16-4-5-11-14-18-21-8-7-10-9-11-9-17-12-8-5z" fill="#EF9287"/>
<path transform="translate(408,61)" d="m0 0 1 3-8 21-2 11-4 37-2 25-3 7-4 3-7 1-3-2-1-9h1v5l10-1 4-4 1-2 4-47 2-18 4-15 4-10z" fill="#517228"/>
<path transform="translate(306,132)" d="m0 0h9l10 5 9 7-2 1-32-3 5-9z" fill="#4F6E25"/>
<path transform="translate(462,228)" d="m0 0 6 1 12 6-1 5-4 1v3l-9-3-13-5 3-3z" fill="#517228"/>
<path transform="translate(230,175)" d="m0 0 3 1-3 5v6l6 8 3 3-8-1h-8l-2-2-2-7v-6z" fill="#D05A56"/>
<path transform="translate(335,125)" d="m0 0 18 1 9 2-4 2-33 1-3 2-14-1 4-3 4-2z" fill="#A1B85C"/>
<path transform="translate(478,131)" d="m0 0h6l2 8v3l-28 2 5-5 12-7z" fill="#4E6D24"/>
<path transform="translate(493,494)" d="m0 0 5 2 13 6 16 4 18 1v1l-12 1h17l9-2 4 1-11 3-10 1h-10l-14-2v-2l-6-1-11-6-8-6z" fill="#EE7E70"/>
<path transform="translate(333,261)" d="m0 0h2v2h-2l-1 3-9 4-22 6h-14l-5-4-2-8-2-1h4l3 8 3 2h9z" fill="#DE6E65"/>
<path transform="translate(335,224)" d="m0 0 2 2 2 4 3 1-1 4-10 4-5-1-1-3h-2l-1-2-4-2z" fill="#597A2A"/>
<path transform="translate(80,545)" d="m0 0h2l8 20 3 7 8 17 10 17 10 16 3 4-1 2-12-17-15-26-10-21-6-15z" fill="#F6B7B0"/>
<path transform="translate(208,186)" d="m0 0 1 2-14 9-11 8-10 8-13 11-8 7-9 9-7 8-8 9v-3l12-13 7-8 12-12 11-9 10-8 17-12z" fill="#F4C8C3"/>
<path transform="translate(480,235)" d="m0 0 12 6 4 4-3 3h-2v2l-6-1-10-5v-3l4-1z" fill="#5A7B2B"/>
<path transform="translate(397,114)" d="m0 0h1v11l-2 20-1 19-3 7-4 1-7-2 2-2 6-3 3-7 3-33 1-10z" fill="#4A6922"/>
<path transform="translate(448,125)" d="m0 0h11l18 2 6 3-2 1-3-1-17-1h-24l-9 1 3-2 7-2z" fill="#A4BA61"/>
<path transform="translate(286,250)" d="m0 0 5 1 3 4-20 11h-2l2-5 9-9z" fill="#507026"/>
<path transform="translate(709,551)" d="m0 0 1 2-9 21-8 16-10 18-2 1 1-4 9-17 7-15 3-7h2l3-9z" fill="#E88C7D"/>
<path transform="translate(279,264)" d="m0 0 2 2 3 7 3 2h14l19-5-1 3-11 4-10 2h-9l-6-3-3-4z" fill="#E4847B"/>
<path transform="translate(325,453)" d="m0 0h2l-1 7-8 16-10 13-6 6-2-1 6-6v-3l8-9 8-14z" fill="#EE8376"/>
<path transform="translate(647,238)" d="m0 0 4 2 9 11 14 18 10 15 2 5h-2l-10-16-4-5-11-14-12-14z" fill="#ED9085"/>
<path transform="translate(727,469)" d="m0 0h1v10l-3 21-5 21h-1l1-13 3-14 3-24z" fill="#F0917C"/>
<path transform="translate(268,505)" d="m0 0h10v2l-10 3h-27l-2-2 20-1z" fill="#F3BBB4"/>
<path transform="translate(79,342)" d="m0 0h1l-1 8-3 15-3 11h-2l-1 10-2 8h-1l1-11 7-28z" fill="#F5C2BC"/>
<path transform="translate(341,221)" d="m0 0h2l5 5 1 5-7 3v-3l-4-1-2-6z" fill="#507127"/>
<path transform="translate(595,196)" d="m0 0 7 4 11 8 14 12 8 7 3 4-4-2-13-11-8-7-7-5-3-1-5-5-3-2z" fill="#DE6E65"/>
<path transform="translate(565,503)" d="m0 0 3 1-5 3-13 3h-17l-1-2 13-1 12-3z" fill="#F1B1AA"/>
<path transform="translate(454,224)" d="m0 0 5 1 5 2-3 3h-2l-1 3-4 2-6-1-3-3 6-1 1-5z" fill="#597A2A"/>
<path transform="translate(223,179)" d="m0 0 2 1-1 4 2 6 5 6v1h-8l-2-2-2-7v-6z" fill="#DE6E65"/>
<path transform="translate(435,135)" d="m0 0m-23 1 1 3 16-2 6-1v2l-11 5-11 1-1-2z" fill="#77973A"/>
<path transform="translate(686,289)" d="m0 0 4 5 12 23 4 9-1 2-3-2-9-21-6-11z" fill="#EE9084"/>
<path transform="translate(80,545)" d="m0 0h2l8 20 3 7 4 8-1 2-3-3-7-15-6-15z" fill="#F6B7AF"/>
<path transform="translate(609,454)" d="m0 0h2l-1 7-8 17-6 8-1-2-2-1 9-12 6-13z" fill="#E2776D"/>
<path transform="translate(71,376)" d="m0 0h1l-1 11-5 33-2 1v-12l2-15h2l2-14z" fill="#F6BBB4"/>
<path transform="translate(375,158)" d="m0 0h1v5l10-1 6-4-1 6-5 4-7 1-3-2z" fill="#507127"/>
<path transform="translate(477,233)" d="m0 0 6 1 2-1 7 4 9 7 1 2-8-2-4-3-6-3-7-4z" fill="#9FB75B"/>
<path transform="translate(397,46)" d="m0 0h15l13 4 5 3v2l-5-2-8-3-7-1h-17l-2-2z" fill="#A6BB63"/>
<path transform="translate(648,650)" d="m0 0h2l-2 4-19 19-8 7-4 3 2-4 10-10 8-7z" fill="#DB6F66"/>
<path transform="translate(407,148)" d="m0 0h2l2 10h2v8l-2 2h-3l-1-6z" fill="#4A6922"/>
<path transform="translate(227,173)" d="m0 0 3 1v2l-10 6 1 13-4-2-2-7 4-7 6-3h2z" fill="#E4847B"/>
<path transform="translate(335,125)" d="m0 0h8v1h-6v2l-21 3h-6l4-3 8-2z" fill="#B6C77F"/>
<path transform="translate(89,322)" d="m0 0 1 3-11 28-1-3 3-13 4-9h2z" fill="#F6B8B1"/>
<path transform="translate(224,503)" d="m0 0 20 3 15 1v1l-23 1-11-4z" fill="#F09D93"/>
<path transform="translate(510,255)" d="m0 0 7 6 2 4h2v2l-6-2-9-6 1-2h3z" fill="#58792A"/>
<path transform="translate(315,231)" d="m0 0 3 1-17 9-4 2 2-5 5-4z" fill="#88A83F"/>
<path transform="translate(99,298)" d="m0 0 1 3-5 10-4 11h-2l-2 6-1-3 12-25z" fill="#F5C3BD"/>
<path transform="translate(292,493)" d="m0 0h2l-2 4-10 5h-7l4-3z" fill="#25180F"/>
<path transform="translate(325,453)" d="m0 0h2l-1 7-7 14-4 2 2-5 6-11z" fill="#EB7D70"/>
<path transform="translate(574,494)" d="m0 0m-2 1h2l-1 4-12 5-2-1 2-4z" fill="#24190F"/>
<path transform="translate(65,482)" d="m0 0 1 3h2l3 18v6h-1v-5h-2l-3-17z" fill="#F6B8B0"/>
<path transform="translate(412,198)" d="m0 0 6 1 15 8-2 1-11-5 2 4-5-2z" fill="#9CB456"/>
<path transform="translate(218,711)" d="m0 0 14 8 11 6-3 1-21-11-3-3z" fill="#DA7368"/>
<path transform="translate(209,370)" d="m0 0 2 1-19 19v-3l9-10z" fill="#313116"/>
<path transform="translate(323,137)" d="m0 0 5 2 6 5-2 1-20-2v-1h12z" fill="#547529"/>
<path transform="translate(709,544)" d="m0 0h1v7l-4 8-3 7-1-3 5-17z" fill="#E5847B"/>
<path transform="translate(573,498)" d="m0 0h4v2l-4 2-3 3-4 2-3-1 4-2h-6l3-2z" fill="#EF9D93"/>
<path transform="translate(304,487)" d="m0 0 3 1-8 9-3 2-4-1 4-5z" fill="#F3A399"/>
<path transform="translate(670,266)" d="m0 0 5 4 11 17v2h-2l-10-16-4-5z" fill="#EC8C82"/>
<path transform="translate(626,219)" d="m0 0 4 1 15 14 3 4-4-2-13-12z" fill="#ED8B80"/>
<path transform="translate(677,612)" d="m0 0 3 1-10 14-2 1 1-4 6-10z" fill="#D9816F"/>
<path transform="translate(597,128)" d="m0 0h2v8l-2 3-1-4 1-3h-2l-2 5-5 5 2-5 5-7h2z" fill="#75943A"/>
<path transform="translate(417,58)" d="m0 0h3l-1 5-4 4-2-1-1-6z" fill="#3E5D1F"/>
<path transform="translate(545,507)" d="m0 0h7v2l-2 1h-17l-1-2z" fill="#F6B9B2"/>
<path transform="translate(724,498)" d="m0 0 1 2-5 21h-1l1-13 3-9z" fill="#F39382"/>
<path transform="translate(587,189)" d="m0 0 5 2 10 7 5 4-1 2-17-12-2-1z" fill="#E9897A"/>
<path transform="translate(71,376)" d="m0 0h1l-1 11-3 13-2 1v-7h2l2-14z" fill="#F6B6AE"/>
<path transform="translate(271,505)" d="m0 0h7v2l-6 2h-12l3-2 7-1z" fill="#F3CEC9"/>
<path transform="translate(191,127)" d="m0 0h2l5 9-1 3-5-4z" fill="#5F7F2F"/>
<path transform="translate(595,132)" d="m0 0h2v7l-6 4-2-2z" fill="#547529"/>
<path transform="translate(127,257)" d="m0 0v3l-7 9-2 5-4 2 2-5 10-13z" fill="#F5C5C0"/>
<path transform="translate(493,494)" d="m0 0 5 2 10 5-1 2-4-1-9-6z" fill="#E8796C"/>
<path transform="translate(322,172)" d="m0 0 8 1v3l-7 3z" fill="#4D6D24"/>
<path transform="translate(327,128)" d="m0 0m-6 1h6l-5 4-14-1v-1z" fill="#9BB356"/>
<path transform="translate(116,274)" d="m0 0v3l-6 9-3 1 2-5 4-6z" fill="#F6BCB6"/>
<path transform="translate(80,545)" d="m0 0h2l4 10-1 3-2-1-3-8z" fill="#F6B4AC"/>
<path transform="translate(279,256)" d="m0 0v3l-2 3 4-2-1 3-6 3h-2l2-5z" fill="#57782A"/>
<path transform="translate(234,163)" d="m0 0 13 3-1 2h-7l-4-2z" fill="#CDC596"/>
<path transform="translate(648,650)" d="m0 0h2l-2 4-9 9v-3z" fill="#D57467"/>
<path transform="translate(578,495)" d="m0 0 4 1h3l-9 6-4 1 3-3h2v-2l-2-1z" fill="#EA887D"/>
<path transform="translate(227,173)" d="m0 0 3 1v2l-10 6h-2l1-3 6-3h2z" fill="#DE947B"/>
<path transform="translate(463,139)" d="m0 0 2 1-1 1 2 1 1-2 5 1-1 2-13 1z" fill="#547529"/>
<path transform="translate(213,380)" d="m0 0h2l-2 4-7 7-2-1z" fill="#DEDFC3"/>
<path transform="translate(293,495)" d="m0 0 2 1-2 2v3l-6 2 1-2-2-2z" fill="#F09085"/>
<path transform="translate(312,481)" d="m0 0v3l-9 10h-3z" fill="#F68C7C"/>
<path transform="translate(609,454)" d="m0 0h2l-1 7-2 5-3 1 3-9z" fill="#D25A54"/>
<path transform="translate(69,504)" d="m0 0h1v5h2l1 8-2 2-2-9z" fill="#F6BCB5"/>
<path transform="translate(326,177)" d="m0 0 4 1-5 4-5 2 1-4z" fill="#ACC072"/>
<path transform="translate(556,456)" d="m0 0h2l-2 4-3 3-2 8h-1v-7z" fill="#BCC395"/>
<path transform="translate(566,169)" d="m0 0 3 2-3 2-1 3-5-1 1-3z" fill="#6D8C39"/>
<path transform="translate(417,48)" d="m0 0 6 1 7 4v2l-5-2-8-3z" fill="#A8BD67"/>
</svg>
